<mxfile host="app.diagrams.net" modified="2023-04-27T20:24:55.348Z" agent="Mozilla/5.0 (Windows NT 10.0; Win64; x64) AppleWebKit/537.36 (KHTML, like Gecko) Chrome/112.0.0.0 Safari/537.36 Edg/112.0.1722.58" etag="vH_0erbK-HxCA7Jp-E86" version="21.2.3" type="device">
  <diagram name="Page-1" id="qsLmdBk7THC19AQzSuD2">
    <mxGraphModel dx="642" dy="468" grid="1" gridSize="10" guides="1" tooltips="1" connect="1" arrows="1" fold="1" page="1" pageScale="1" pageWidth="850" pageHeight="1100" math="0" shadow="0">
      <root>
        <mxCell id="0" />
        <mxCell id="1" parent="0" />
        <mxCell id="Il-y-xr79zcMfjk0Nq0y-7" style="edgeStyle=orthogonalEdgeStyle;rounded=0;orthogonalLoop=1;jettySize=auto;html=1;entryX=0.75;entryY=0;entryDx=0;entryDy=0;exitX=0.75;exitY=1;exitDx=0;exitDy=0;" edge="1" parent="1" source="Il-y-xr79zcMfjk0Nq0y-2" target="Il-y-xr79zcMfjk0Nq0y-4">
          <mxGeometry relative="1" as="geometry" />
        </mxCell>
        <mxCell id="Il-y-xr79zcMfjk0Nq0y-9" style="edgeStyle=orthogonalEdgeStyle;rounded=0;orthogonalLoop=1;jettySize=auto;html=1;entryX=0;entryY=0.25;entryDx=0;entryDy=0;exitX=1;exitY=0.25;exitDx=0;exitDy=0;" edge="1" parent="1" source="Il-y-xr79zcMfjk0Nq0y-2" target="Il-y-xr79zcMfjk0Nq0y-3">
          <mxGeometry relative="1" as="geometry" />
        </mxCell>
        <mxCell id="Il-y-xr79zcMfjk0Nq0y-2" value="&amp;lt;&amp;lt;Tab Menu&amp;gt;&amp;gt;&lt;br&gt;Add Spending&lt;br&gt;&lt;br&gt;&amp;lt;&amp;lt;button&amp;gt;&amp;gt;&lt;br&gt;View Statistics&lt;br&gt;&amp;lt;&amp;lt;button&amp;gt;&amp;gt;&lt;br&gt;Settings&lt;br&gt;" style="rounded=0;whiteSpace=wrap;html=1;" vertex="1" parent="1">
          <mxGeometry x="240" y="280" width="120" height="160" as="geometry" />
        </mxCell>
        <mxCell id="Il-y-xr79zcMfjk0Nq0y-11" style="edgeStyle=orthogonalEdgeStyle;rounded=0;orthogonalLoop=1;jettySize=auto;html=1;entryX=1;entryY=0.75;entryDx=0;entryDy=0;exitX=0;exitY=0.75;exitDx=0;exitDy=0;" edge="1" parent="1" source="Il-y-xr79zcMfjk0Nq0y-3" target="Il-y-xr79zcMfjk0Nq0y-2">
          <mxGeometry relative="1" as="geometry" />
        </mxCell>
        <mxCell id="Il-y-xr79zcMfjk0Nq0y-14" style="edgeStyle=orthogonalEdgeStyle;rounded=0;orthogonalLoop=1;jettySize=auto;html=1;entryX=1;entryY=0.75;entryDx=0;entryDy=0;exitX=0.75;exitY=1;exitDx=0;exitDy=0;" edge="1" parent="1" source="Il-y-xr79zcMfjk0Nq0y-3" target="Il-y-xr79zcMfjk0Nq0y-4">
          <mxGeometry relative="1" as="geometry" />
        </mxCell>
        <mxCell id="Il-y-xr79zcMfjk0Nq0y-3" value="&amp;lt;&amp;lt;Tab Menu&amp;gt;&amp;gt;&lt;br&gt;View Statistics&lt;br&gt;&lt;br&gt;&amp;lt;&amp;lt;button&amp;gt;&amp;gt;&lt;br&gt;Add Spending&lt;br&gt;&amp;lt;&amp;lt;button&amp;gt;&amp;gt;&lt;br&gt;Settings" style="rounded=0;whiteSpace=wrap;html=1;" vertex="1" parent="1">
          <mxGeometry x="520" y="280" width="120" height="160" as="geometry" />
        </mxCell>
        <mxCell id="Il-y-xr79zcMfjk0Nq0y-13" style="edgeStyle=orthogonalEdgeStyle;rounded=0;orthogonalLoop=1;jettySize=auto;html=1;exitX=1;exitY=0.25;exitDx=0;exitDy=0;entryX=0.25;entryY=1;entryDx=0;entryDy=0;" edge="1" parent="1" source="Il-y-xr79zcMfjk0Nq0y-4" target="Il-y-xr79zcMfjk0Nq0y-3">
          <mxGeometry relative="1" as="geometry">
            <mxPoint x="460" y="610" as="targetPoint" />
          </mxGeometry>
        </mxCell>
        <mxCell id="Il-y-xr79zcMfjk0Nq0y-4" value="&amp;lt;&amp;lt;Tab Menu&amp;gt;&amp;gt;&lt;br&gt;Settings&lt;br&gt;&lt;br&gt;&amp;lt;&amp;lt;button&amp;gt;&amp;gt;&lt;br&gt;Add Spending&lt;br&gt;&amp;lt;&amp;lt;button&amp;gt;&amp;gt;&lt;br&gt;View Statistics" style="rounded=0;whiteSpace=wrap;html=1;" vertex="1" parent="1">
          <mxGeometry x="240" y="560" width="120" height="160" as="geometry" />
        </mxCell>
        <mxCell id="Il-y-xr79zcMfjk0Nq0y-5" value="" style="endArrow=classic;html=1;rounded=0;exitX=0.25;exitY=0;exitDx=0;exitDy=0;entryX=0.25;entryY=1;entryDx=0;entryDy=0;" edge="1" parent="1" source="Il-y-xr79zcMfjk0Nq0y-4" target="Il-y-xr79zcMfjk0Nq0y-2">
          <mxGeometry width="50" height="50" relative="1" as="geometry">
            <mxPoint x="310" y="540" as="sourcePoint" />
            <mxPoint x="360" y="490" as="targetPoint" />
          </mxGeometry>
        </mxCell>
        <mxCell id="Il-y-xr79zcMfjk0Nq0y-6" value="Click&lt;br&gt;Add Spending" style="text;html=1;strokeColor=none;fillColor=none;align=center;verticalAlign=middle;whiteSpace=wrap;rounded=0;" vertex="1" parent="1">
          <mxGeometry x="190" y="480" width="80" height="40" as="geometry" />
        </mxCell>
        <mxCell id="Il-y-xr79zcMfjk0Nq0y-8" value="Click&lt;br&gt;Settings" style="text;html=1;strokeColor=none;fillColor=none;align=center;verticalAlign=middle;whiteSpace=wrap;rounded=0;" vertex="1" parent="1">
          <mxGeometry x="330" y="480" width="80" height="40" as="geometry" />
        </mxCell>
        <mxCell id="Il-y-xr79zcMfjk0Nq0y-10" value="Click&lt;br&gt;View Statistics" style="text;html=1;strokeColor=none;fillColor=none;align=center;verticalAlign=middle;whiteSpace=wrap;rounded=0;" vertex="1" parent="1">
          <mxGeometry x="400" y="280" width="80" height="40" as="geometry" />
        </mxCell>
        <mxCell id="Il-y-xr79zcMfjk0Nq0y-12" value="Click&lt;br&gt;Add Spending" style="text;html=1;strokeColor=none;fillColor=none;align=center;verticalAlign=middle;whiteSpace=wrap;rounded=0;" vertex="1" parent="1">
          <mxGeometry x="400" y="400" width="80" height="40" as="geometry" />
        </mxCell>
        <mxCell id="Il-y-xr79zcMfjk0Nq0y-15" value="Click&lt;br&gt;Settings" style="text;html=1;strokeColor=none;fillColor=none;align=center;verticalAlign=middle;whiteSpace=wrap;rounded=0;" vertex="1" parent="1">
          <mxGeometry x="440" y="680" width="80" height="40" as="geometry" />
        </mxCell>
        <mxCell id="Il-y-xr79zcMfjk0Nq0y-17" value="Click&lt;br&gt;View Statistics" style="text;html=1;strokeColor=none;fillColor=none;align=center;verticalAlign=middle;whiteSpace=wrap;rounded=0;" vertex="1" parent="1">
          <mxGeometry x="440" y="560" width="80" height="40" as="geometry" />
        </mxCell>
      </root>
    </mxGraphModel>
  </diagram>
</mxfile>
